<svg width="228" height="228" viewBox="0 0 228 228" fill="none" xmlns="http://www.w3.org/2000/svg">
    <path fill-rule="evenodd" clip-rule="evenodd" d="M127.728 4.23704C127.728 1.89699 125.92 0 123.69 0H104.31C102.08 0 100.272 1.89699 100.272 4.23704V84.7408C100.272 87.0808 98.4643 88.9778 96.2344 88.9778H89.5448C86.2607 88.9778 84.3503 92.8732 86.2592 95.6776L110.714 131.606C112.325 133.971 115.675 133.971 117.286 131.606L141.741 95.6776C143.65 92.8732 141.739 88.9778 138.455 88.9778H131.766C129.536 88.9778 127.728 87.0808 127.728 84.7408V4.23704ZM8.67769 157.626C2.94869 143.795 0 128.971 0 114H34.2063C46.5684 114 56.198 124.392 60.9287 135.813C63.7932 142.728 67.9919 149.012 73.2847 154.305C78.5778 159.598 84.8615 163.797 91.777 166.661C98.6926 169.526 106.105 171 113.59 171C121.075 171 128.487 169.526 135.403 166.661C142.318 163.797 148.602 159.598 153.895 154.305C159.188 149.012 163.387 142.728 166.251 135.813C170.982 124.392 180.611 114 192.974 114H228C228 128.971 225.051 143.795 219.322 157.626C213.593 171.457 205.196 184.024 194.61 194.61C184.024 205.196 171.457 213.593 157.626 219.322C143.795 225.051 128.971 228 114 228C99.0294 228 84.2053 225.051 70.3742 219.322C56.5431 213.593 43.9756 205.196 33.3898 194.61C22.804 184.024 14.4068 171.457 8.67769 157.626ZM55.9161 24.7537C52.8499 27.2225 52.3259 31.7599 54.7459 34.8882C57.1658 38.0165 61.6133 38.551 64.6796 36.0822L75.0895 27.7003C78.1558 25.2314 78.6797 20.694 76.2598 17.5658C73.8398 14.4375 69.3924 13.9029 66.3261 16.3718L55.9161 24.7537ZM173.224 24.7537C176.29 27.2225 176.814 31.7599 174.394 34.8882C171.974 38.0165 167.527 38.551 164.46 36.0822L154.05 27.7003C150.984 25.2314 150.46 20.694 152.88 17.5658C155.3 14.4375 159.748 13.9029 162.814 16.3718L173.224 24.7537ZM21.5801 83.855C17.9463 82.3931 16.162 78.2026 17.595 74.4953L22.4597 61.9089C23.8926 58.2016 28.0001 56.3813 31.6339 57.8432C35.2678 59.3051 37.052 63.4956 35.6191 67.2029L30.7543 79.7893C29.3214 83.4966 25.214 85.3169 21.5801 83.855ZM211.545 74.4953C212.978 78.2026 211.194 82.3931 207.56 83.855C203.926 85.3169 199.819 83.4966 198.386 79.7893L193.521 67.2029C192.088 63.4956 193.872 59.3051 197.506 57.8432C201.14 56.3813 205.247 58.2016 206.68 61.9089L211.545 74.4953Z" fill="url(#paint0_linear_9_88)"/>
    <path d="M194.61 194.61C173.231 215.989 144.234 228 114 228C83.7651 228 54.7688 215.989 33.3896 194.61C45.4025 182.597 64.8336 183.283 80.3746 190.145C90.868 194.779 102.307 197.239 114 197.239C125.693 197.239 137.132 194.779 147.625 190.145C163.166 183.283 182.597 182.597 194.61 194.61Z" fill="black" fill-opacity="0.25"/>
    <defs>
        <linearGradient id="paint0_linear_9_88" x1="237.792" y1="109.315" x2="-7.98606" y2="109.315" gradientUnits="userSpaceOnUse">
            <stop stop-color="#C631FF"/>
            <stop offset="1" stop-color="#4DC4FE"/>
        </linearGradient>
    </defs>
</svg>
